<?xml version="1.0" standalone="no"?>
<!DOCTYPE svg PUBLIC "-//W3C//DTD SVG 20010904//EN"
 "http://www.w3.org/TR/2001/REC-SVG-20010904/DTD/svg10.dtd">
<svg version="1.0" xmlns="http://www.w3.org/2000/svg"
 width="512.000000pt" height="512.000000pt" viewBox="0 0 512.000000 512.000000"
 preserveAspectRatio="xMidYMid meet">
<metadata>
Created by potrace 1.11, written by Peter Selinger 2001-2013
</metadata>
<g transform="translate(0.000000,512.000000) scale(0.100000,-0.100000)"
fill="#000000" stroke="none">
<path d="M772 5109 c-30 -5 -96 -23 -148 -40 -322 -107 -561 -393 -614 -735
-7 -47 -10 -616 -8 -1819 l3 -1750 27 -86 c56 -179 122 -291 239 -408 117
-117 229 -183 408 -239 l86 -27 1795 0 1795 0 86 27 c179 56 291 122 408 239
117 117 183 229 239 408 l27 86 0 1795 0 1795 -27 86 c-56 179 -122 291 -239
408 -117 117 -229 183 -408 239 l-86 27 -1765 1 c-1002 1 -1788 -2 -1818 -7z
m2831 -815 c402 -56 681 -255 801 -576 76 -201 92 -482 41 -701 -45 -193 -150
-385 -298 -543 -67 -72 -218 -194 -279 -225 l-37 -19 110 -173 c193 -298 448
-666 631 -910 83 -110 89 -120 86 -160 -3 -40 -5 -42 -53 -60 -128 -48 -415
-108 -587 -123 -75 -7 -78 -6 -116 25 -31 24 -73 89 -180 278 -172 304 -286
515 -400 740 l-87 173 -257 0 -258 0 0 -135 c0 -138 15 -693 25 -912 l5 -123
-365 0 -365 0 0 33 c0 17 7 244 17 502 17 479 15 846 -14 2557 l-6 368 654 2
c743 3 784 3 932 -18z m-1833 -174 l0 -190 -540 0 -540 0 0 190 0 190 540 0
540 0 0 -190z m0 -770 l0 -190 -540 0 -540 0 0 190 0 190 540 0 540 0 0 -190z
m0 -770 l0 -190 -540 0 -540 0 0 190 0 190 540 0 540 0 0 -190z m0 -785 l0
-195 -540 0 -540 0 0 195 0 195 540 0 540 0 0 -195z m0 -755 l0 -190 -540 0
-540 0 0 190 0 190 540 0 540 0 0 -190z"/>
<path d="M2915 3768 c-88 -5 -161 -11 -164 -13 -5 -6 -25 -1164 -20 -1170 3
-2 122 -9 265 -15 252 -11 263 -10 313 9 135 54 269 173 328 291 48 96 65 170
70 312 12 302 -89 472 -329 552 -65 22 -237 49 -285 45 -10 -1 -90 -6 -178
-11z"/>
</g>
</svg>
